<svg xmlns="http://www.w3.org/2000/svg" xmlns:xlink="http://www.w3.org/1999/xlink" viewBox="0 0 3229.25 2000"><defs><linearGradient id="linear-gradient" x1="1320.01" y1="490.03" x2="1639.62" y2="490.03" gradientUnits="userSpaceOnUse"><stop offset="0" stop-color="#ff9f55"/><stop offset="1" stop-color="#ffd255"/></linearGradient><linearGradient id="linear-gradient-2" x1="1267.12" y1="273.44" x2="1413.64" y2="273.44" xlink:href="#linear-gradient"/><linearGradient id="linear-gradient-3" x1="3064.06" y1="-9560.6" x2="3381.44" y2="-9560.6" gradientTransform="translate(-7996.18 488.69) rotate(73.11)" gradientUnits="userSpaceOnUse"><stop offset="0" stop-color="#40d5e6"/><stop offset="1" stop-color="#57f"/></linearGradient><linearGradient id="linear-gradient-4" x1="2217.51" y1="865.34" x2="2411.61" y2="543.14" gradientUnits="userSpaceOnUse"><stop offset="0" stop-color="#602f80"/><stop offset="1" stop-color="#5770ff"/></linearGradient><linearGradient id="linear-gradient-5" x1="5429.65" y1="-4323.97" x2="5396.65" y2="-4411.31" gradientTransform="translate(-7996.18 488.69) rotate(73.11)" xlink:href="#linear-gradient-4"/><linearGradient id="linear-gradient-6" x1="3057.92" y1="1539.25" x2="3057.92" y2="1172.36" xlink:href="#linear-gradient-4"/><linearGradient id="linear-gradient-7" x1="-9037.12" y1="1154.7" x2="-7138.11" y2="1154.7" gradientTransform="matrix(-1, 0, 0, 1, -5979.21, 0)" xlink:href="#linear-gradient"/><linearGradient id="linear-gradient-8" x1="898.79" y1="1313.31" x2="898.79" y2="1083.61" xlink:href="#linear-gradient"/><linearGradient id="linear-gradient-9" x1="955.41" y1="1313.31" x2="955.41" y2="1083.61" xlink:href="#linear-gradient"/><linearGradient id="linear-gradient-10" x1="1012.03" y1="1313.31" x2="1012.03" y2="1083.61" xlink:href="#linear-gradient"/><linearGradient id="linear-gradient-11" x1="1068.64" y1="1313.31" x2="1068.64" y2="1083.61" xlink:href="#linear-gradient"/><linearGradient id="linear-gradient-12" x1="1836.35" y1="2074.49" x2="1865.46" y2="420.76" gradientTransform="translate(3706.32 2239.14) rotate(-180)" xlink:href="#linear-gradient-3"/><linearGradient id="linear-gradient-13" x1="1935.46" y1="680.9" x2="2152.18" y2="680.9" gradientTransform="matrix(1, 0, 0, 1, 0, 0)" xlink:href="#linear-gradient-3"/><linearGradient id="linear-gradient-14" x1="1935.46" y1="795.81" x2="2134.4" y2="795.81" gradientTransform="matrix(1, 0, 0, 1, 0, 0)" xlink:href="#linear-gradient-3"/><linearGradient id="linear-gradient-15" x1="1935.46" y1="738.36" x2="2107.58" y2="738.36" gradientTransform="matrix(1, 0, 0, 1, 0, 0)" xlink:href="#linear-gradient-3"/><linearGradient id="linear-gradient-16" x1="1702.93" y1="904.86" x2="1702.93" y2="666.86" gradientUnits="userSpaceOnUse"><stop offset="0" stop-color="#7db3e0"/><stop offset="1" stop-color="#fff"/></linearGradient><radialGradient id="radial-gradient" cx="-8533.12" cy="2443.92" r="179.09" gradientTransform="matrix(-3.8, 0, 0, 3.8, -30290.49, -8073.26)" gradientUnits="userSpaceOnUse"><stop offset="0.16" stop-color="#90c2e8"/><stop offset="0.58" stop-color="#47afff"/><stop offset="1" stop-color="#6783f5"/></radialGradient><linearGradient id="linear-gradient-17" x1="1011.63" y1="1528.32" x2="1002.9" y2="1177.47" xlink:href="#linear-gradient"/><linearGradient id="linear-gradient-18" x1="969" y1="1529.38" x2="960.27" y2="1178.53" xlink:href="#linear-gradient"/><linearGradient id="linear-gradient-19" x1="1930.89" y1="217.56" x2="1852.28" y2="511.62" gradientTransform="translate(3786.54 716.57) rotate(-180)" xlink:href="#linear-gradient"/><linearGradient id="linear-gradient-20" x1="1926.97" y1="216.51" x2="1848.36" y2="510.57" gradientTransform="translate(3786.54 685.11) rotate(-180)" xlink:href="#linear-gradient"/><linearGradient id="linear-gradient-21" x1="1695.03" y1="551.37" x2="1713.95" y2="841.06" gradientTransform="matrix(1, 0, 0, 1, 0, 0)" xlink:href="#linear-gradient-3"/><linearGradient id="linear-gradient-22" x1="1695.03" y1="551.37" x2="1713.95" y2="841.06" gradientTransform="translate(1030.65 2375.21) rotate(-90)" xlink:href="#linear-gradient-3"/></defs><title>dokter</title><g style="isolation:isolate"><g id="Слой_1" data-name="Слой 1"><path d="M1354.6,542.28a134.78,134.78,0,0,0,19.19,32.38l-11.41,23.93,23,17.28,23,17.28,19.78-17.65a134.82,134.82,0,0,0,36.46,9.36l8.85,25,28.51-4.07,28.51-4.07,1.5-26.45a134.87,134.87,0,0,0,32.38-19.19l23.93,11.41,17.28-23,17.28-23-17.65-19.78a134.83,134.83,0,0,0,9.36-36.46l25-8.85-4.07-28.51-4.07-28.51-26.45-1.5a134.85,134.85,0,0,0-19.19-32.38l11.41-23.93-23-17.28-23-17.28-19.78,17.65a134.83,134.83,0,0,0-36.46-9.36l-8.84-25-28.51,4.07-28.51,4.07-1.5,26.45A134.82,134.82,0,0,0,1395.18,384l-23.93-11.41-17.28,23-17.28,23,17.65,19.78a134.78,134.78,0,0,0-9.36,36.46l-25,8.85,4.07,28.51,4.07,28.51Zm111-152.16a100.92,100.92,0,1,1-85.64,114.18A100.92,100.92,0,0,1,1465.55,390.12Z" style="fill:url(#linear-gradient)"/><path d="M1283,297.4a61.78,61.78,0,0,0,8.8,14.84l-5.23,11,10.56,7.92,10.56,7.92,9.07-8.09a61.81,61.81,0,0,0,16.71,4.29l4.06,11.45,13.07-1.87,13.07-1.87.69-12.12a61.82,61.82,0,0,0,14.84-8.8l11,5.23,7.92-10.56,7.92-10.56-8.09-9.07a61.8,61.8,0,0,0,4.29-16.71l11.45-4.05-1.87-13.07-1.87-13.07-12.12-.69a61.83,61.83,0,0,0-8.8-14.84l5.23-11-10.56-7.92-10.56-7.92-9.07,8.09a61.79,61.79,0,0,0-16.71-4.29l-4.06-11.45L1330.18,202l-13.07,1.87-.69,12.13a61.79,61.79,0,0,0-14.84,8.8l-11-5.23-7.92,10.56-7.92,10.56,8.09,9.07a61.81,61.81,0,0,0-4.29,16.71l-11.45,4.06,1.87,13.07,1.87,13.07Zm50.86-69.76A46.27,46.27,0,1,1,1294.57,280,46.27,46.27,0,0,1,1333.84,227.64Z" style="fill:url(#linear-gradient-2)"/><rect x="1822.01" y="869.24" width="6.67" height="700.15" style="fill:#f3f3f3"/><rect x="1825.35" y="782.96" width="71.94" height="18.25" style="fill:#fff"/><rect x="1825.35" y="816.7" width="57.56" height="18.25" style="fill:#fff"/><rect x="1828.68" y="1610.87" width="75.49" height="24.33" style="fill:#fff"/><path d="M2102.47,625.12s146,173.13,53.39,285.24-118.11,2.19-118.11,2.19-55.44,10.29,40.58-129.93C2123.59,716.52,2102.47,625.12,2102.47,625.12Z" style="fill:url(#linear-gradient-3)"/><path d="M2422.52,490S2531,650.14,2342.13,834.57,2167.31,1129,2167.31,1129,1974.21,751,2422.52,490Z" style="fill:url(#linear-gradient-4)"/><path d="M2132.05,1059.43c-79.24,7.15,12.7-207.09,136.49-263s228.52-51.19,300.9-110.2C2569.44,686.21,2522.23,1024.22,2132.05,1059.43Z" style="fill:url(#linear-gradient-5)"/><rect x="3054.58" y="869.24" width="6.67" height="700.15" style="fill:url(#linear-gradient-6)"/><rect x="1633.41" y="869.24" width="6.67" height="700.15" style="fill:#f3f3f3"/><rect x="2107.91" y="869.24" width="6.67" height="700.15" style="fill:#f3f3f3"/><rect x="1162.24" y="782.96" width="113.65" height="18.25" style="fill:#e0e0e0"/><rect x="1162.24" y="816.7" width="161.21" height="18.25" style="fill:#e0e0e0"/><rect x="1631.63" y="782.96" width="133.43" height="18.25" style="fill:#fff"/><rect x="1631.63" y="816.7" width="85.32" height="18.25" style="fill:#fff"/><rect x="2114.58" y="782.96" width="82.69" height="18.25" style="fill:#fff"/><rect x="2114.58" y="816.7" width="96.37" height="18.25" style="fill:#fff"/><rect x="1636.74" y="1610.87" width="75.49" height="24.33" style="fill:#fff"/><rect x="2114.58" y="1610.87" width="75.49" height="24.33" style="fill:#fff"/><path d="M2212.71,1353.43c109.24,0,195.89-73.47,280.71-145.38,64.32-54.53,131-110.29,208.07-137.79,235.08-83.93,355.34,69.33,356.42,70.68v-46.62c-1.27-1.6-22.72-29.45-84.79-56-56.51-24.21-151.31-43.53-282.08,2-82.85,28.82-151.65,87.15-218.19,143.57-135,114.44-251.55,213.27-454,58.46-153.33-117.25-297.87-229-440.09-269.8-139.1-39.93-284.12-10.7-419.86,125l1,42.34c288.35-289.62,533.87-106.13,839.64,127.68C2080.53,1329.45,2150.32,1353.43,2212.71,1353.43Z" style="fill:url(#linear-gradient-7)"/><rect x="887.39" y="1129.7" width="22.8" height="98.46" style="fill:#e0e0e0"/><rect x="944.01" y="1089.7" width="22.8" height="138.46" style="fill:#e0e0e0"/><rect x="1000.63" y="1068.83" width="22.8" height="159.32" style="fill:#e0e0e0"/><rect x="1057.24" y="1060.14" width="22.8" height="168.02" style="fill:#e0e0e0"/><rect x="887.39" y="1166.39" width="22.8" height="61.77" style="fill:url(#linear-gradient-8)"/><rect x="944.01" y="1141.29" width="22.8" height="86.86" style="fill:url(#linear-gradient-9)"/><rect x="1000.63" y="1128.2" width="22.8" height="99.96" style="fill:url(#linear-gradient-10)"/><rect x="1057.24" y="1122.74" width="22.8" height="105.41" style="fill:url(#linear-gradient-11)"/><rect x="1436.32" y="568.07" width="833.68" height="1102.99" rx="59.95" ry="59.95" transform="translate(3706.32 2239.14) rotate(180)" style="fill:url(#linear-gradient-12)"/><path d="M1525.91,446.7h694.76a0,0,0,0,1,0,0V1624.46a0,0,0,0,1,0,0h-735a0,0,0,0,1,0,0V487A40.25,40.25,0,0,1,1525.91,446.7Z" style="fill:#f5f5f5"/><rect x="1935.46" y="667.2" width="216.72" height="27.41" style="fill:url(#linear-gradient-13)"/><rect x="1935.46" y="782.1" width="198.94" height="27.41" style="fill:url(#linear-gradient-14)"/><rect x="1935.46" y="724.65" width="172.13" height="27.41" style="fill:url(#linear-gradient-15)"/><path d="M1702.93,843a169.24,169.24,0,0,1-70.55-15.22,171.17,171.17,0,0,1-100.15-155.49c0-94.13,76.58-170.71,170.71-170.71s170.71,76.58,170.71,170.71a171.17,171.17,0,0,1-100.16,155.49A169.23,169.23,0,0,1,1702.93,843Zm0-332.4c-89.16,0-161.7,72.54-161.7,161.7a162.14,162.14,0,0,0,94.87,147.29,162.17,162.17,0,0,0,133.64,0,162.14,162.14,0,0,0,94.87-147.29C1864.62,583.12,1792.09,510.58,1702.93,510.58Z" style="fill:url(#linear-gradient-16)"/><rect x="1532.22" y="911.7" width="249.02" height="24.44" style="fill:#e0e0e0"/><rect x="1532.22" y="977.46" width="249.02" height="24.44" style="fill:#e0e0e0"/><rect x="1532.22" y="1043.22" width="249.02" height="24.44" style="fill:#e0e0e0"/><rect x="1832.07" y="911.7" width="41.57" height="24.44" style="fill:#4e7ed6"/><rect x="1832.07" y="977.46" width="41.57" height="24.44" style="fill:#4e7ed6"/><rect x="1832.07" y="1043.22" width="41.57" height="24.44" style="fill:#4e7ed6"/><path d="M1324.34,1361.36c148,0,276.66-64,410.78-130.68,165.58-82.34,336.8-167.48,564.93-144.17,145.67,14.89,237.11,74.21,317.78,126.55,73,47.39,142.1,89.07,235.63,92.63C3004.6,1311.45,3057,1247,3057.92,1243v-41.37h0c-.19.71-33.19,73.07-204.31,72.21-84.27-.42-146.46-40.78-218.48-87.5-83.69-54.3-178.54-115.84-331.85-131.51-237.27-24.25-412.69,63-582.32,147.33-177.5,88.27-346.88,171-561.05,99.23v34C1221,1355.92,1269.78,1361.36,1324.34,1361.36Z" style="fill:url(#radial-gradient)"/><rect x="1932.96" y="887.08" width="497.53" height="755.5" rx="74.73" ry="74.73" style="fill:#f5f5f5;mix-blend-mode:hard-light"/><path d="M2372.32,999.45A81.44,81.44,0,1,0,2219,1054.3c.62,1.72,1.29,3.42,2,5.08a81.44,81.44,0,0,0,151.36-59.93Zm-56.12,84.92a61,61,0,0,1-76.55-33.13q-.81-1.86-1.5-3.81a61.06,61.06,0,1,1,78.05,36.93Z" style="fill:#e0e0e0"/><path d="M2237.35,1008.68l-19.46-6.08a81.55,81.55,0,0,1,75.31-57.15l.61,20.38a61.15,61.15,0,0,0-56.46,42.85Z" style="fill:#537ffd"/><path d="M2239.65,1051.24l-18.69,8.14c-.72-1.66-1.39-3.35-2-5.08a81.07,81.07,0,0,1-1.06-51.7l19.46,6.08a60.78,60.78,0,0,0,.79,38.76Q2238.84,1049.38,2239.65,1051.24Z" style="fill:#4ba6f3"/><path d="M2233.58,1079.65a81,81,0,0,1-12.62-20.27l18.69-8.14a60.7,60.7,0,0,0,9.46,15.2Z" style="fill:#46bbed"/><rect x="2251.01" y="1472.03" width="43.9" height="143.94" style="fill:#46bbed"/><rect x="2185.75" y="1512.4" width="43.9" height="103.57" style="fill:#46bbed"/><rect x="2314.33" y="1405.31" width="43.9" height="210.66" style="fill:#46bbed"/><polygon points="1999.42 1457.19 1995.61 1454.26 2067.14 1361.18 2155.43 1365.97 2222.01 1259.95 2293.73 1252.55 2336.83 1167.3 2341.13 1169.47 2296.84 1257.06 2224.84 1264.49 2158 1370.93 2069.41 1366.12 1999.42 1457.19" style="fill:#46bbed"/><path d="M2134.72,994.34H2009.88a14.27,14.27,0,0,1-14.27-14.27h0a14.27,14.27,0,0,1,14.27-14.27h124.84A14.27,14.27,0,0,1,2149,980.07h0A14.27,14.27,0,0,1,2134.72,994.34Z" style="fill:#4e7ed6"/><path d="M2134.72,1044.13H2009.88a14.27,14.27,0,0,1-14.27-14.27h0a14.27,14.27,0,0,1,14.27-14.27h124.84a14.27,14.27,0,0,1,14.27,14.27h0A14.27,14.27,0,0,1,2134.72,1044.13Z" style="fill:#e0e0e0"/><path d="M2134.72,1093.92H2009.88a14.27,14.27,0,0,1-14.27-14.27h0a14.27,14.27,0,0,1,14.27-14.27h124.84a14.27,14.27,0,0,1,14.27,14.27h0A14.27,14.27,0,0,1,2134.72,1093.92Z" style="fill:#e0e0e0"/><polygon points="990.44 1393.27 1040.69 1393.27 1025.31 1361.36 975.05 1361.36 990.44 1393.27" style="fill:url(#linear-gradient-17)"/><polygon points="966.92 1393.27 978.89 1393.27 963.51 1361.36 951.53 1361.36 966.92 1393.27" style="fill:url(#linear-gradient-18)"/><rect x="1843.52" y="349.27" width="99.5" height="18.03" transform="translate(3786.54 716.57) rotate(180)" style="fill:url(#linear-gradient-19)"/><rect x="1843.52" y="340.86" width="99.5" height="3.39" transform="translate(3786.54 685.11) rotate(180)" style="fill:url(#linear-gradient-20)"/><path d="M1139.21,1344.72s-14.45,7.17-28.13,8.52c0,0-12.93-19-20.5-33.15-18-33.86-23.38-49.7-21.84-62.7,2.77-23.36,48.72-116.84,48.72-116.84l51,19.68-39.05,69.4c-3.65,7.11-8.35,18.67-13.21,28.07-6.37,12.32,1.3,40.52,5.84,52.3C1122.05,1310,1130.38,1332.81,1139.21,1344.72Z" style="fill:#eea886"/><path d="M979.8,1729.79s-1.5,8.46,4.35,19.75,32.08,40.09,30.27,51.91-32.11,10.43-51.14-10.39S916,1748.63,917,1743.64s29.58-31,39.51-34.42S979.8,1729.79,979.8,1729.79Z" style="fill:#353a3d"/><polygon points="990.27 1718.65 979.55 1730.2 955.44 1709.65 966.52 1696.8 990.27 1718.65" style="fill:#eea886"/><path d="M957.17,1696.8c11.76-13.33,106.65-110.43,106.65-110.43,48.4-55.79,67.33-57.26,67.33-57.26a281.53,281.53,0,0,1,28.83,2.53c2.38.33,10.16.25,12.65.65,30.82,5,31.67,1.48,20.41,26.73-18.53,41.51-204.31,161.28-204.31,161.28Z" style="fill:#248c9e"/><path d="M1390.67,1747.4s15.22,6.64,28.63,8.47,45.71-3.49,54.89,5.32-10.6,34.31-40.36,38.11-67.87,10.1-71.57,6.13-6.8-39.65-3.73-50.39S1390.67,1747.4,1390.67,1747.4Z" style="fill:#353a3d"/><polygon points="1384.28 1731.63 1390.67 1747.4 1358.54 1755.04 1353.69 1738.15 1384.28 1731.63" style="fill:#eea886"/><path d="M1336,1532.26s-13.08-49.88,17.64,67.63c0,0,32.37,125.39,35.93,132.52.84,1.69-40.59,9.27-41.35,9-7.21-2.88-71.71-163.53-87.74-193.2C1246.42,1522.06,1336,1532.26,1336,1532.26Z" style="fill:#248c9e"/><path d="M1336.06,1532.26l-64.47,37.09s-25.37-31.16-42.17-43.87c-1.73-1.29-3.45-2.6-5.21-4-2.48-1.87-5-3.79-7.44-5.74-1.8-1.41-3.62-2.85-5.4-4.28-12.28-9.8-23.76-19.7-30.08-27-18.27-21.09,21.72-154.41,72.21-94.95C1253.49,1389.52,1321.18,1453.07,1336.06,1532.26Z" style="fill:#248c9e"/><path d="M1249.46,1373.72s-31.77,146-63.09,195.65c0,0-53.18-17.93-77.61-27.5,0,0-2.37-105.5,0-133.07C1110.95,1383.07,1249.46,1373.72,1249.46,1373.72Z" style="fill:#248c9e"/><path d="M1102.37,1424.91s13.4-131.18,2.3-192.22c-7.38-40.58,3.3-106.42,27.62-142a86.87,86.87,0,0,1,9.17-11.42s49.11,13,54,16.43c.7.49,6,5.19,12.74,13.42h0c14,17.14,34.61,48.17,36.62,78.29,1.46,21.91,2.66,42,4,62.79.41,6.32.85,12.69,1.3,19.2,1.1,15.62,2.36,32,3.92,50,.87,10,7.63,41.85,12.08,71.2Z" style="fill:#2aa3b8"/><path d="M1224.21,1521.51c-2.48-1.87-5-3.79-7.44-5.74-1.8-1.41-3.62-2.85-5.4-4.28,2.58-8.22,16.59-45.72,22.09-72.5C1233.45,1439,1237.51,1480.7,1224.21,1521.51Z" style="fill:#196370"/><path d="M1250.18,1269.45s-28.58,43.44-33.65-63.84l32.35,44.64C1249.29,1256.57,1249.72,1262.95,1250.18,1269.45Z" style="fill:#1d6f7d"/><path d="M1141.46,1079.31s5.12-28.37-.84-44.87,48.87,27.8,48.87,27.8,0,2.29.09,5.73c.07,2.68.22,6.06.46,9.6.5,6.75,1.39,14.11,3.06,18.33C1196.76,1105.19,1141.46,1079.31,1141.46,1079.31Z" style="fill:#eea886"/><path d="M1220.75,979.89s11.56,21.77,5.74,25.1c-4.81,2.76,5.45,24.11,6.79,27.6s-8.72,5.95-10.87,8.17-8.65,29.73-16.93,30.5-45.45-12.43-55.53-23-18.09-58.32-11.18-78.38S1200.35,941.86,1220.75,979.89Z" style="fill:#eea886"/><path d="M1223.05,984.6s12.1-23.35-9.48-40.87-61.79,12.71-66.3,13.85-31.3,9.68-17.86,49.51c12.19,36.14,13.76,40.22,13.76,40.22s7.41-24,12.12-27.39c7.36-5.27,23.41-3.89,23.41-3.89s-7.52-20.37,4.46-23.17S1211,980,1223.05,984.6Z" style="fill:#3b3b40"/><path d="M1166,1004.31c-1-2.79-4.37-14.8-14.69-7.83s6.21,29.65,8,30S1174.77,1027.82,1166,1004.31Z" style="fill:#eea886"/><path d="M1190,1077.57c-17-4.57-31.56-23-31.56-23,4.64,4.53,31.1,13.41,31.1,13.41C1189.64,1070.65,1189.79,1074,1190,1077.57Z" style="fill:#a77860"/><polygon points="1379.76 1231.91 1352.09 1374.37 1260.65 1356.61 1284.75 1213.46 1379.76 1231.91" style="fill:#616161"/><polygon points="1372.9 1238.85 1348.32 1365.37 1267.12 1349.6 1288.52 1222.46 1372.9 1238.85" style="fill:#e0cec7"/><polygon points="1347.15 1237.11 1348.88 1228.23 1316.05 1221.85 1313.04 1230.48 1347.15 1237.11" style="fill:#616161"/><path d="M1369.07,1331.92s-4,1.69-6.14,1.56c0,0-3.84-.52-6.59-.72a18.53,18.53,0,0,0-2.13-.06c-2.07.12-6.56,1-11.61-.09s-25.56-11.42-25.56-11.42l2.43-12.68.59-12.19s29.91-10.17,34.73-9.69a12.27,12.27,0,0,1,1.36.21c4,.8,6.7,3.09,8.77,3.75.76.25,8.14,3.22,8.86,5.48,1,3.14.43,5.73-1,7.49,0,0,1.7,6.24-.08,10.21,0,0,1.75,5.71-1.87,10C1370.85,1323.79,1372,1329.78,1369.07,1331.92Z" style="fill:#eea886"/><path d="M1327,1293.51s-2.84,15.88-9.91,27.67c0,0-22.93-.91-38.84-3.28-37.94-5.67-53.85-10.83-63.37-19.81C1197.71,1282,1150,1189.36,1150,1189.36l46.19-29.25,32.49,72.71c3.54,7.16,10,17.83,14.68,27.33,6.11,12.46,33.32,23.09,45.48,26.46C1288.84,1286.61,1312.12,1293.51,1327,1293.51Z" style="fill:#eea886"/><path d="M1219.22,1199.64l-52.51,27.3s-10.41-20.15-13.46-26.7c-8.75-18.78-22.27-47.17-5.26-59.16,36.71-25.88,52.49,17.07,61.5,40.62C1212.28,1189,1219.22,1199.64,1219.22,1199.64Z" style="fill:#2aa3b8"/><rect x="1680.68" y="578.74" width="44.49" height="187.07" style="fill:url(#linear-gradient-21)"/><rect x="1680.68" y="578.74" width="44.49" height="187.07" transform="translate(2375.21 -1030.65) rotate(90)" style="fill:url(#linear-gradient-22)"/><path d="M1051.73,738.48a106.15,106.15,0,1,0-90.79,191.9c2.16,1,4.34,2,6.53,2.83a106.15,106.15,0,0,0,84.27-194.73Zm26.54,130a79.49,79.49,0,0,1-101.08,40q-2.46-1-4.9-2.12a79.58,79.58,0,1,1,106-37.9Z" style="fill:#e0e0e0"/><path d="M935.84,871.37l-23.53,12.33A106.3,106.3,0,0,1,929,761.63l19.34,18.22a79.71,79.71,0,0,0-12.54,91.53Z" style="fill:#2d5bad"/><path d="M977.19,908.48l-9.73,24.72c-2.19-.86-4.37-1.81-6.53-2.83a105.67,105.67,0,0,1-48.63-46.67l23.53-12.33a79.23,79.23,0,0,0,36.45,35Q974.72,907.51,977.19,908.48Z" style="fill:#5d96ff"/><path d="M997.78,940.26a105.58,105.58,0,0,1-30.32-7l9.73-24.72a79.15,79.15,0,0,0,22.73,5.29Z" style="fill:#5d96ff"/><polygon points="973.72 1010.22 775.51 1010.22 775.51 1006.28 969.78 1006.28 969.78 922.31 973.72 922.31 973.72 1010.22" style="fill:#5d96ff"/><rect x="775.51" y="965.28" width="104.33" height="23.64" style="fill:#e0e0e0"/><path d="M1842.43,1293.81s5.8,13.23,11.36,11.58,13.81-1.17,16.39-.89c3.46.38,14.72-2.26,14.06,1.95s-18.39,5.2-22.09,6.12,9.62,10.34,10.55,14-17.67,24.62-26,17.1-11.75-21-13.5-22.07-9.38-11.8-9.38-11.8Z" style="fill:#eea886"/><path d="M1871.21,1324.31S1895,1349,1895.07,1352s-1.45,4.2-3.78,2-23.72-23.19-23.72-23.19,22.78,34,23.41,36.4c.37,1.41-2.47,3.93-3.83,2.86s-26-33.44-26-33.44,21.21,31.78,21.1,34c-.1,1.91-3.27,3.63-5,1.38s-23.23-30.6-23.23-30.6,13.87,24.13,12.64,26c-.75,1.13-3.1,3.41-6.47-2.93s-13-20.43-13-20.43Z" style="fill:#eea886"/><path d="M1547.8,1757.91s-9.11,6.51-14.16,11.06-11.92,9.51-16.13,21.14,2.45,20.22,13.85,20.92,28.86-7.91,30.56-18.34,15.07-9.11,16.82-16.46-.59-16.39-.59-16.39Z" style="fill:#353a3d"/><path d="M1549.32,1749.36l-1.52,8.54s4.69,8.69,30.34,1.93l-1.32-8.42Z" style="fill:#81807e"/><path d="M1578.14,1759.84s-5.78.76-9.89,1.41-12.27-4.61-20.45-3.33l2.52,10.39S1577.57,1763.19,1578.14,1759.84Z" style="fill:#353a3d"/><path d="M1711.65,1756.2s9.11,6.51,14.16,11.06,11.92,9.51,16.13,21.14-2.45,20.22-13.85,20.92-28.86-7.91-30.56-18.34-15.07-9.11-16.82-16.46.59-16.39.59-16.39Z" style="fill:#353a3d"/><path d="M1710.14,1747.66l1.52,8.54s-4.69,8.69-30.35,1.93l1.32-8.42Z" style="fill:#81807e"/><path d="M1722.41,1553.29c0,18.78-2.69,195.93-2.69,195.93-1.88,6.26-37,8.31-43.22,5.18s-5.16-178.8-6.32-197.73-16.37-158.22-21.86-157.6-36.51,131.84-40.9,146.23-21.63,208.09-21.63,208.09c-21.4,7.45-43.28.9-43.28.9s8.18-196.17,8.19-219.47c0-8.64,2.55-15.19,5-61.15,1.87-35,11.62-106.82,18.14-156.22.23-1.76.45-3.45.67-5.06,1.28-9.61,2.24-16.68,2.7-20.07l.31-2.24q2.64-1.22,5.51-2.25c45.84-16.47,134.25,1,134.25,1s0,.43.15,1.25l.54,4.56c.51,4.36,1.27,10.84,2.14,18.37,0,.05,0,.11,0,.16,0,.23.05.46.08.69,3.08,26.79,4.61,41.5,7,70.09C1727.78,1390.2,1722.41,1534.51,1722.41,1553.29Z" style="fill:#248c9e"/><path d="M1676.06,1036.36s75.07,15.94,81.33,36.8,18.41,69.86,35.32,123.15c10.11,31.88,61.5,104.49,61.5,104.49s-29.4,21.67-29.4,18.75-69.24-95.32-70.07-106.58-21.82-68.88-21.82-68.88S1723,1254.87,1723,1272s4.31,69.69,4.31,69.69-30.19,25.07-84.2,22.25c0,0-76.32.32-75.26-29.69.93-26.45,7.44-184.92,5.78-185.75s-31.64,36.71-28.72,43.93,80.49,33.15,80.49,33.15,2.27,8.35-9.78,27.28c0,0-115.86-33.86-116.28-40.95s48.19-144.85,64.06-152.06c22.85-10.38,83.4-24.23,83.4-24.23Z" style="fill:#2aa3b8"/><path d="M1681.31,1758.13s5.78.76,9.89,1.41,12.27-4.61,20.45-3.33l-2.52,10.39S1681.88,1761.49,1681.31,1758.13Z" style="fill:#353a3d"/><path d="M1678.73,1038.13c-.36,18.34-42.46,37.64-42.46,37.64s-10.23-34.27-6.69-36.06c1.39-.7,1.84-1.13,2-4.25a64.4,64.4,0,0,0-.2-8.32c-.11-1.3-.21-2.13-.21-2.13s5.07-5.35,11.53-11.73c11.28-11.15,27.42-27.66,27.45-22,0,.3.44.45.34.87C1667.77,1005,1678.73,1038.13,1678.73,1038.13Z" style="fill:#eea886"/><path d="M1663,1007.23h0c-.07.11-1.58,2.36-4.15,5.59-5.45,6.86-15.7,18.12-27.22,22.64a64.4,64.4,0,0,0-.2-8.32,18.48,18.48,0,0,1-3.53-.42,109.3,109.3,0,0,1,7.72-11.3l7.13-2.13Z" style="fill:#a77860"/><path d="M1669.77,993.79c-3.07,6.68-6,11.52-6.82,13.44h0a23.72,23.72,0,0,1-4.15,5.59c-5.85,6.3-16.73,14.62-27.42,14.33a18.48,18.48,0,0,1-3.53-.42c-4.32-.94-9.41-2.95-12.22-8.44-22.15-43.37-6.11-78.83-6.11-78.83s60.57-17.13,70,1.11C1686.22,953.35,1677,978.09,1669.77,993.79Z" style="fill:#eea886"/><path d="M1609.53,939.45s-5.62-.31-7-11,12.23-17.79,12.23-17.79a76.93,76.93,0,0,1,23.16-7.49c9-1.25,31.06-2.67,36.23,3.25,0,0,12.57-2.92,16,18,5.43,33.12-18.52,65.27-18.52,65.27s.2-21.63-4.57-24.5-8.89,4-8.89,4l-9.76,1.75s13.83-26.74-4-27.92S1619.71,941.31,1609.53,939.45Z" style="fill:#223247"/><path d="M1658.42,960.49c.93-9.53,18.17-13.17,17-3.18s-9.64,19.59-13.56,19.25S1657.72,967.76,1658.42,960.49Z" style="fill:#eea886"/><polygon points="1663.98 1157.53 1635.76 1302.81 1542.52 1284.7 1567.09 1138.71 1663.98 1157.53" style="fill:#616161"/><polygon points="1656.98 1164.61 1631.92 1293.63 1549.11 1277.54 1570.93 1147.89 1656.98 1164.61" style="fill:#e0cec7"/><polygon points="1630.73 1162.83 1632.48 1153.78 1599.01 1147.28 1595.94 1156.08 1630.73 1162.83" style="fill:#616161"/><path d="M1645.71,1224.37s7.13-.2,9.31-.51.74,4.33-1.79,5.2S1645.71,1224.37,1645.71,1224.37Z" style="fill:#c98462"/><path d="M1649.88,1258.42a14.56,14.56,0,0,1-4.63.42s-2.72-.82-4.69-1.29a14.13,14.13,0,0,0-1.54-.29,26.68,26.68,0,0,1-8.41-1.41c-3.53-1.38-15.49-7.51-15.49-7.51l3.42-11.13,2.58-8.81s20.22-5.38,23.66-4.48a8.84,8.84,0,0,1,1,.31c2.84,1,4.5,3,5.93,3.74.52.27,5.53,3.28,5.79,5a5.7,5.7,0,0,1-1.59,5.32s.51,4.72-1.24,7.4c0,0,.61,4.34-2.52,7C1652.11,1252.74,1652.23,1257.21,1649.88,1258.42Z" style="fill:#eea886"/><path d="M1625.36,1225.55s-3.76,20.31-14.56,33.38c0,0-80.31-32.65-90.44-36.64s36.82-128.76,36.82-128.76l34.55,11.76-18.56,35.1s-9.19,19.66-28.3,52C1544.88,1192.4,1556.64,1203.57,1625.36,1225.55Z" style="fill:#2aa3b8"/><path d="M1673.3,1116.19s-2.12,38.87,17.31,38.87,17.67-35,18-38.87Z" style="fill:#258ea1"/><polygon points="1676.76 1116.19 1705.77 1116.19 1705.77 1110.29 1676.76 1116.19" style="fill:#fff"/><path d="M2286.21,1193.25s-6.6-14.28-7.68-16.43-7.39-5.56-14.89-7.45c-7.28-1.84-17.19-5.51-18.32-4.81s-2.46.81-3.8,4a13,13,0,0,0-.76,6.54s-3.48,3.1-2.44,7.23a6.88,6.88,0,0,0-1.19,7.57s-3,3.07-1.29,6.23c0,0,5.85,3.32,7.66,5.17s14.45,7.92,27.46,11.88C2271,1213.14,2284.52,1212.72,2286.21,1193.25Z" style="fill:#8e4f3a"/><path d="M2271,1213.14s16.15,2.82,21.62-.33-.9-19.6-.9-19.6l-10.22-6.18Z" style="fill:#8e4f3a"/><path d="M2265,1186.33s.25,7.9,1.44,10.08-14.89,5.58-14.89,5.58S2255.37,1186.89,2265,1186.33Z" style="fill:#5e3527"/><path d="M2247.34,1165.25s17.63,8.57,16.61,11.58a5,5,0,0,1-3.23,3.49l5.66,6.82s1.2,6.63-6.37,6c0,0,1.76,6.08-5.48,4.59,0,0-.63,4.53-4.1,4.43s-14.59-6.08-14.59-6.08-2.11-2.45,1-6.36a6.75,6.75,0,0,1,1.22-7.53s-1-5.47,2.6-9.07c0,0-.37-6.07,4.84-8.65C2245.47,1164.48,2246.6,1164.88,2247.34,1165.25Z" style="fill:#7a4432"/><path d="M2278,1176.49s-13.45.29-20.73,3.67c-1.65.76-3.1,1.81-3,3.62s2.83,4,8.67,4.17,13.29,3.07,13.29,3.07S2282.28,1189.44,2278,1176.49Z" style="fill:#8e4f3a"/><path d="M2240.75,1173.16s20,6.85,21.38,8.52,4-5.68,2.69-7-16.94-9.7-18.67-10.16S2238.63,1168.11,2240.75,1173.16Z" style="fill:#8e4f3a"/><path d="M2249.9,1165.33s-31.35-6.42-32-2.6,2.4,4.46,28.09,12C2271,1182,2249.9,1165.33,2249.9,1165.33Z" style="fill:#8e4f3a"/><path d="M2465.33,1808.29s-10,14.95-24,18.18-27.82,8.36-27.92,17.21,40.52,14.12,56.55,5.2c23.93-13.31,26.37-9.29,29-15.95s-3.19-24.44-3-26.55C2496.17,1803.76,2465.33,1808.29,2465.33,1808.29Z" style="fill:#353a3d"/><path d="M2466.88,1800.91s-1.82,7.22-1.55,7.37,31.58,3.88,30.63-1.91c-.77-4.7-1.86-9.81-1.86-9.81Z" style="fill:#81807e"/><path d="M2570.69,1807.3s-7.13,14.3-19.3,19.17c-13,5.21-23.45,11.19-23.21,19.8s31.82,17.35,54.79.81c14.51-10.45,19.11-10.5,21.44-17.08s-4-23.68-4-25.74C2600.56,1801.7,2570.69,1807.3,2570.69,1807.3Z" style="fill:#353a3d"/><path d="M2570.34,1799.87s.09,7.29.36,7.43,30.53,2.63,29.76-3a46.59,46.59,0,0,0-2.94-9.94Z" style="fill:#81807e"/><path d="M2459.39,1363.11s-28.11,124-34.53,161.78c-5.47,32.15-9.82,65.63-7.2,88.83,3.24,28.73,43.92,177.65,42.22,186.07s48.49,3.3,48.49,3.3-36.86-168.06-30.69-199c4.58-22.9,44.68-175,50.82-167.2s13.77,143.55,18.32,166.09,18.52,200.59,18.52,200.59,31.24,4.61,39.59-2.45c0,0,3.8-152,.9-194.29-1.11-16.1,18.87-193.05-6.74-264.29C2585.54,1304.91,2459.39,1363.11,2459.39,1363.11Z" style="fill:#2d3133"/><path d="M2275.79,1219.25s97.39,21.59,116.77,16.83c9-2.2,20.76-14.57,32-29.11,3.7-4.79,7.32-9.81,10.77-14.79v0c13.76-19.86,24.54-38.9,24.54-38.9s40.66-47.66,8-68.9c0,0-11.84-4.44-22.72,7.22s-23.65,36-26.5,42.26-42.79,63.82-44.86,65.12-19.52-3.3-33.52-4.46c-22.82-1.91-57-10.79-57-10.79Z" style="fill:#dbdff0"/><path d="M2498.41,1073.73s-41.86,8.66-46.83,13.05c-5.39,4.68-14.9,50.53-15.47,63.3s5,66.12,10.44,86,4.4,117.72,1,145.25c0,0,84.29,23.94,167.16,13.15,0,0-13.89-102.95-10.58-130.17,4.25-34.88,14.47-115.23,14.47-115.23s-7.34-56-14.72-62.22-58.22-13.14-58.22-13.14Z" style="fill:#bcc0cf"/><path d="M2515.71,944.29s-50.35-18.63-47.21,48.28,14.95,73.72,48.07,64.37,35.9-51.58,40.21-71.9S2532.18,947.21,2515.71,944.29Z" style="fill:#8e4f3a"/><path d="M2491.82,1082.79s10.36,6.85,49.65-10.46c0,0-1.11-26.94,6.6-52.1s-52.73,33.55-52.73,33.55c.63.45.75,3,.39,6.47a71.15,71.15,0,0,1-1.94,10.4C2491.59,1079.06,2491.82,1075.45,2491.82,1082.79Z" style="fill:#8e4f3a"/><path d="M2549.8,1018.24s.14-17.88-7.29-19.52-8.41-7.59-8.41-7.59l-4.26,1s.78-3.15-6.31-7.3-49.48-.5-54.8-6.6,2.39-42.32,14-45.88,38.44-3.23,63,3.67c0,0,18.64,4.7,20,26.64C2566.62,976.84,2555.84,1008.55,2549.8,1018.24Z" style="fill:#2d3133"/><path d="M2493.8,1070.65c39-6.56,44.86-28.76,45-29.1-15.17,19.57-43,18.71-43,18.71A71.15,71.15,0,0,1,2493.8,1070.65Z" style="fill:#633029"/><path d="M2495.52,1091.58s-7.11,10.49-11.4,37.4-3.56,73.28-3.56,73.28l9.88,1.2s15-94.56,12.39-111Z" style="fill:#434343"/><path d="M2534.09,991.13c2.22-5.9,14.78-5.15,13.5,4.19s-11.66,23.75-15.83,21S2531,999.26,2534.09,991.13Z" style="fill:#8e4f3a"/><path d="M2451,1086.74s-23.78,31.47-15,113.8c15.92,148.78-25.78,387.61-25.78,387.61l43,13.46s41.11-305.31,30.64-416.12c-4.77-50.49-18.93-67.29,3.41-109.36C2487.36,1076.14,2465.61,1077.24,2451,1086.74Z" style="fill:#dbdff0"/><path d="M2557.23,1075.45s-68.09,68.78-73.42,120.92-14,405.25-14,405.25l162.1-9.44s-14.9-186.4-18.54-209.72-11.16-157.2,5.25-219.33c8.81-33.38-1.67-75.72-21.81-80.34S2557.23,1075.45,2557.23,1075.45Z" style="fill:#dbdff0"/><path d="M2580.24,1084.36s-26.22,7.22-11.8,55.35c11.3,37.7,12.83,45.79,12.83,45.79l60.51-15.11s-17.74-82.81-46.7-87.26C2595.09,1083.13,2585.87,1081.82,2580.24,1084.36Z" style="fill:#dbdff0"/><polygon points="2381.87 1339.09 2500.48 1461.84 2579.26 1385.71 2463.73 1259.99 2381.87 1339.09" style="fill:#616161"/><polygon points="2393.09 1341.53 2498.42 1450.54 2568.39 1382.93 2465.78 1271.28 2393.09 1341.53" style="fill:#e0cec7"/><polygon points="2417.36 1323.32 2409.96 1315.67 2438.25 1288.34 2446.75 1294.92 2417.36 1323.32" style="fill:#616161"/><path d="M2541.46,1064.89s-20.54,12.39-40.86,15.18l10.81,17.25,34.25-23.58Z" style="fill:#a7aab8"/><path d="M2493.8,1070.65s2.16,7.1,6.8,9.42l-10.15,14.16.37-18.78Z" style="fill:#a7aab8"/><path d="M2500.6,1080.07l-8,11.21s5.09,6.44,16,1.56Z" style="fill:#434343"/><path d="M2424.54,1207h0c3.7-4.79,7.32-9.81,10.77-14.79v0s-1.3-36.28-.16-46.7C2435.15,1145.46,2423.3,1184.54,2424.54,1207Z" style="fill:#a7aab8"/><path d="M2591.63,1182.91s7.91,51.45,7.35,54.75S2634.77,1227.33,2591.63,1182.91Z" style="fill:#a7aab8"/><rect x="2448.83" y="1164.5" width="19.11" height="29.17" transform="translate(4916.76 2358.18) rotate(180)" style="fill:#c6cad9"/><path d="M2533.77,1304.38s-1.75,3.46-4.66,4.63c-5,2-13-1.18-16.15,6s16.92,24.05,21.94,24.93,12.13-7.34,16.76-23.18S2533.77,1304.38,2533.77,1304.38Z" style="fill:#8e4f3a"/><path d="M2514.35,1312.75a219.49,219.49,0,0,0-17.14,17.5c-7.48,8.6-14.67,20.14-13.38,22.32,2.86,4.84,9.81-6,17.81-14,7.36-7.37,6.14-6.08,6.14-6.08s0-.78-6.41,8.87c-6.91,10.38-12.93,21.77-11.29,24.3.79,1.23,4,4.24,5.55-.72-1.38,2.32-1.62,1.75-.7,2.46,4.78,3.64,17.33-9.94,22.32-15.33-3.8,4.17-6.14,7.66-1.83,8,4.93.4,21.8-19.64,28.54-26.21C2551.3,1326.73,2514.35,1312.75,2514.35,1312.75Z" style="fill:#8e4f3a"/><path d="M2577.11,1087.58c-5.49,2.13-7.57,11.87-5.31,40.11s12.2,41.23,15.91,47.76,24.11,46.8,20.44,52.09-38.3,39.46-40.3,42.24-40.67,37.78-40.67,37.78l19.68,27.51s83.49-65.21,90-71.72,26-20.19,18.78-42.93c-7.32-23.12-20.47-77.23-22.81-81.47S2613.4,1073.53,2577.11,1087.58Z" style="fill:#dbdff0"/></g></g></svg>